<svg t="1678463359769" class="icon" viewBox="0 0 1024 1024" version="1.1" xmlns="http://www.w3.org/2000/svg" p-id="3621" width="32" height="32"><path d="M737.8 762.4c-1.6 1.4-2.8 2.4-4 3.5C681 814.6 619.9 848.4 550.4 867c-19.3 5.2-39 8.8-58.8 11.3-25.6 3.2-51.4 3.9-77.1 2.4-45.8-2.6-90.2-12.2-133-29C158.6 803.4 64.1 701.4 25.4 575c-6.3-20.5-10.9-41.4-14.1-62.6-4-26.8-5.5-53.8-4.4-80.8C9.8 362 28.1 296.7 62.4 236c54.5-96.4 143.4-168 249.1-200.8 22.3-6.9 45.1-11.9 68.3-15.1 28.3-4 56.7-5 85.2-3.3 32.8 1.8 65.1 7.4 96.6 16.8 1.4 0.4 2.8 0.8 4.1 1.3 7.9 3.2 13.5 10.8 13.4 20.4-0.2 9.4-6.4 17.3-15.3 20-4.4 1.3-8.8 1-13.2-0.2-10.3-2.7-20.7-5.5-31.1-7.8-12.8-2.9-25.8-4.7-38.8-6.1-15.1-1.6-30.3-2.4-45.5-2.2-58.8 0.8-114.7 13.9-167.5 39.8C166 148.4 90.3 241.2 62 350.9c-4.4 16.9-7.5 34-9.6 51.3-2.6 21.5-3.4 43.1-2.4 64.7C55.7 587 114.7 691 202.6 758.3c46.6 35.7 98.6 59.6 156 71.8 16.6 3.5 33.4 5.9 50.3 7.2 18.4 1.4 36.8 1.8 55.1 0.5 96.7-6.8 180-43.9 249.3-111.8 49.6-48.6 83.5-106.8 102.1-173.7 5.3-19.1 9-38.6 11.3-58.3 2.3-19.6 3.2-39.2 2.5-58.9-1-26.6-4.5-52.9-10.8-78.7-0.3-1.4-0.7-2.8-1-4.2-2.3-11.3 4.4-22.1 15.6-25.1 11-3 22.5 3.3 25.8 14.3 1.6 5.2 2.7 10.5 3.8 15.8 3.8 18 6.6 36.2 8.1 54.5 1.4 16.8 2.1 33.5 1.4 50.3-3.8 98.9-37 186.8-99.8 263.3-1.5 1.8-3.3 3.5-4.5 5.8 0.5 0.7 1 1.3 1.5 1.9 1.1 1.2 2.2 2.3 3.4 3.4l237.9 237.9c1.5 1.5 3 2.9 4.3 4.5 9.5 11.5 4.7 29-9.4 33.8-7.5 2.6-14.5 1.4-20.8-3.7-1.6-1.3-3-2.8-4.5-4.3L742.3 766.7c-1.4-1.3-2.7-2.6-4.5-4.3z" p-id="3622"></path><path d="M455.6 672.6c-38.6-0.5-76.7-11.5-111.3-34.3-2.9-1.9-5.9-4-8.4-6.3-12.2-11-8-31 7.5-36.1 6.8-2.2 13.3-1.3 19.2 2.7 2.4 1.6 4.6 3.4 7 5 18.1 11.7 37.8 19.3 58.9 23.3 12.3 2.3 24.7 3.3 37.2 2.6 20.8-1.1 40.8-5.8 60-13.7 11.6-4.8 22.6-10.5 33.2-17 3.2-1.9 6.4-3.5 10.2-3.9 10.6-1.2 20.3 4.9 23.2 15.2 2.6 9.1-0.6 17.6-7.2 22.8-1 0.8-2.1 1.5-3.2 2.2-22.9 14.1-47.1 25-73.3 31.4-16.4 3.9-33.2 6-53 6.1zM803.8 237.1c13.5-0.3 24.5 11.1 24.6 24.1 0.1 12.8-10.2 24.4-24.2 24.6-12.4 0.1-24.5-9.4-24.5-24.2-0.1-15.8 13-24.7 24.1-24.5z" p-id="3623"></path></svg>